<svg width="20" height="20" viewBox="0 0 20 20" fill="none" xmlns="http://www.w3.org/2000/svg">
<g clip-path="url(#clip0_2414_19774)">
<path d="M16.3516 6.47595C16.9004 7.5229 17.2129 8.71382 17.2129 9.97791C17.2127 14.1496 13.8309 17.5314 9.65918 17.5316C9.14087 17.5316 8.63447 17.4787 8.14551 17.3793C8.39888 17.0181 8.63222 16.6413 8.84082 16.2494C9.18469 15.6034 9.45981 14.9248 9.66699 14.226C12.0098 14.2215 13.908 12.3218 13.9082 9.97791C13.9082 9.41426 13.7969 8.87634 13.5977 8.38416C14.2241 7.98811 14.9175 7.53122 15.6113 7.03064C15.8561 6.85403 16.1029 6.66734 16.3516 6.47595ZM9.65918 2.42322C10.2144 2.42325 10.7553 2.48432 11.2764 2.59802C10.6489 3.43927 10.0726 4.46965 9.68652 5.72791C9.67742 5.72785 9.6683 5.72791 9.65918 5.72791C7.31238 5.72791 5.40918 7.6311 5.40918 9.97791C5.40924 10.5612 5.5265 11.1174 5.73926 11.6234C5.1231 12.023 4.44331 12.4841 3.76172 12.9886C3.51339 13.1725 3.26179 13.3656 3.00977 13.5648C2.43278 12.4977 2.10457 11.2762 2.10449 9.97791C2.10449 5.80581 5.48709 2.42322 9.65918 2.42322Z" fill="#182226"/>
<circle cx="9.65862" cy="9.97746" r="0.937181" fill="#182226"/>
<path d="M8.98391 11.3286C8.9128 11.2333 8.80994 11.1678 8.69467 11.1443C8.5794 11.1208 8.45968 11.1411 8.35804 11.2012C6.87475 12.0806 1.87723 15.0246 0.340731 17.8922C-0.957935 20.3297 1.76457 20.1226 3.3261 19.8263C4.01111 19.6965 4.65522 19.4003 5.20369 18.9628C6.33435 18.1119 7.26765 17.0185 7.93762 15.7599C8.6076 14.5013 8.99789 13.1082 9.08092 11.6791C9.0909 11.5542 9.05647 11.4298 8.98391 11.3286Z" fill="#182226"/>
<path d="M10.3386 8.64269C10.4093 8.73853 10.5119 8.80472 10.6272 8.82878C10.7425 8.85285 10.8625 8.83312 10.9645 8.77333C12.4478 7.89075 17.5642 4.99448 19.1007 2.10778C20.3994 -0.329675 17.68 -0.122571 16.1185 0.173747C15.4338 0.306455 14.7901 0.603563 14.2409 1.0404C12.7983 2.18743 10.5326 4.31263 10.2479 8.28902C10.2364 8.4141 10.2686 8.5393 10.3386 8.64269Z" fill="#182226"/>
</g>
<defs>
<clipPath id="clip0_2414_19774">
<rect width="20" height="20" fill="white"/>
</clipPath>
</defs>
</svg>
